<!DOCTYPE svg PUBLIC "-//W3C//DTD SVG 1.1//EN" "http://www.w3.org/Graphics/SVG/1.1/DTD/svg11.dtd">
<!-- Uploaded to: SVG Repo, www.svgrepo.com, Transformed by: SVG Repo Mixer Tools -->
<svg width="800px" height="800px" viewBox="0 0 24 24" data-name="025_SCIENCE" id="_025_SCIENCE" xmlns="http://www.w3.org/2000/svg" fill="#000000" stroke="#000000" stroke-width="0.00024000000000000003">
<g id="SVGRepo_bgCarrier" stroke-width="0"/>
<g id="SVGRepo_tracerCarrier" stroke-linecap="round" stroke-linejoin="round"/>
<g id="SVGRepo_iconCarrier">
<defs>
<style>.cls-1{fill:#d9c120;}</style>
</defs>
<path class="cls-1" d="M18,22H6a3,3,0,0,1-3-3V7A3,3,0,0,1,6,4H18a3,3,0,0,1,3,3V19A3,3,0,0,1,18,22ZM6,6A1,1,0,0,0,5,7V19a1,1,0,0,0,1,1H18a1,1,0,0,0,1-1V7a1,1,0,0,0-1-1Z"/>
<path class="cls-1" d="M9,13a1,1,0,0,1-1-1V10a1,1,0,0,1,2,0v2A1,1,0,0,1,9,13Z"/>
<path class="cls-1" d="M15,13a1,1,0,0,1-1-1V10a1,1,0,0,1,2,0v2A1,1,0,0,1,15,13Z"/>
<path class="cls-1" d="M12,5a1,1,0,0,1-1-1V2a1,1,0,0,1,2,0V4A1,1,0,0,1,12,5Z"/>
<path class="cls-1" d="M15,18H9a1,1,0,0,1,0-2h6a1,1,0,0,1,0,2Z"/>
</g>
</svg>