<!DOCTYPE svg PUBLIC "-//W3C//DTD SVG 1.1//EN" "http://www.w3.org/Graphics/SVG/1.1/DTD/svg11.dtd">
<!-- Uploaded to: SVG Repo, www.svgrepo.com, Transformed by: SVG Repo Mixer Tools -->
<svg fill="#f7f12b" width="800px" height="800px" viewBox="-4.56 -4.56 33.12 33.12" id="hastag" data-name="Flat Color" xmlns="http://www.w3.org/2000/svg" class="icon flat-color" stroke="#f7f12b" stroke-width="0.00024000000000000003">
<g id="SVGRepo_bgCarrier" stroke-width="0"/>
<g id="SVGRepo_tracerCarrier" stroke-linecap="round" stroke-linejoin="round"/>
<g id="SVGRepo_iconCarrier">
<path id="secondary" d="M19,16H4a1,1,0,0,1,0-2H19a1,1,0,0,1,0,2Zm1-6H5A1,1,0,0,1,5,8H20a1,1,0,0,1,0,2Z" style="fill: #f7f12b;"/>
<path id="primary" d="M12.69,22a1.07,1.07,0,0,1-.25,0,1,1,0,0,1-.71-1.23l4.82-18a1,1,0,1,1,1.93.52l-4.82,18A1,1,0,0,1,12.69,22ZM6.48,22l-.26,0a1,1,0,0,1-.7-1.23l4.82-18a1,1,0,1,1,1.93.52l-4.82,18A1,1,0,0,1,6.48,22Z" style="fill: #f7f12b;"/>
</g>
</svg>