<!DOCTYPE svg PUBLIC "-//W3C//DTD SVG 1.1//EN" "http://www.w3.org/Graphics/SVG/1.1/DTD/svg11.dtd">
<!-- Uploaded to: SVG Repo, www.svgrepo.com, Transformed by: SVG Repo Mixer Tools -->
<svg width="800px" height="800px" viewBox="0 0 24.00 24.00" fill="none" xmlns="http://www.w3.org/2000/svg" stroke="#f551c9">
<g id="SVGRepo_bgCarrier" stroke-width="0"/>
<g id="SVGRepo_tracerCarrier" stroke-linecap="round" stroke-linejoin="round"/>
<g id="SVGRepo_iconCarrier"> <path d="M12 15V15C14.2091 15 16 13.2091 16 11V11M12 15V15C9.79086 15 8 13.2091 8 11V11M12 15V20M12 20H16M12 20H8M8 6V4H16V6M8 6H6C4.89543 6 4 6.89543 4 8V8.43845C4 9.35618 4.62459 10.1561 5.51493 10.3787L8 11M8 6V11M16 11L18.4851 10.3787C19.3754 10.1561 20 9.35618 20 8.43845V8C20 6.89543 19.1046 6 18 6H16M16 11V6" stroke="#f551c9" stroke-width="1.08" stroke-linecap="round" stroke-linejoin="round"/> </g>
</svg>