<!DOCTYPE svg PUBLIC "-//W3C//DTD SVG 1.1//EN" "http://www.w3.org/Graphics/SVG/1.1/DTD/svg11.dtd">
<!-- Uploaded to: SVG Repo, www.svgrepo.com, Transformed by: SVG Repo Mixer Tools -->
<svg fill="#636974" width="800px" height="800px" viewBox="0 0 24 24" xmlns="http://www.w3.org/2000/svg">
<g id="SVGRepo_bgCarrier" stroke-width="0"/>
<g id="SVGRepo_tracerCarrier" stroke-linecap="round" stroke-linejoin="round"/>
<g id="SVGRepo_iconCarrier">
<path d="M22,15H20V12a1,1,0,0,0-1-1H13V9h2a1,1,0,0,0,1-1V2a1,1,0,0,0-1-1H9A1,1,0,0,0,8,2V8A1,1,0,0,0,9,9h2v2H5a1,1,0,0,0-1,1v3H2a1,1,0,0,0-1,1v6a1,1,0,0,0,1,1H8a1,1,0,0,0,1-1V16a1,1,0,0,0-1-1H6V13H18v2H16a1,1,0,0,0-1,1v6a1,1,0,0,0,1,1h6a1,1,0,0,0,1-1V16A1,1,0,0,0,22,15ZM7,17v4H3V17ZM10,7V3h4V7ZM21,21H17V17h4Z"/>
</g>
</svg>